<svg width="400" height="120" viewBox="0 0 400 120" fill="none" xmlns="http://www.w3.org/2000/svg">
  <defs>
    <linearGradient id="osmosis_grad" x1="0%" y1="0%" x2="100%" y2="0%">
      <stop offset="0%" stop-color="#0F4C81" />
      <stop offset="100%" stop-color="#2DD4BF" />
    </linearGradient>
  </defs>
  
  <path d="M40 60C40 37.9086 57.9086 20 80 20C102.091 20 120 37.9086 120 60C120 82.0914 102.091 100 80 100C57.9086 100 40 82.0914 40 60Z" fill="url(#osmosis_grad)" fill-opacity="0.2"/>
  <path d="M55 60C55 46.1929 66.1929 35 80 35C93.8071 35 105 46.1929 105 60C105 73.8071 93.8071 85 80 85C66.1929 85 55 73.8071 55 60Z" stroke="url(#osmosis_grad)" stroke-width="8"/>
  
  <text x="68" y="68" font-family="Arial, sans-serif" font-weight="bold" font-size="22" fill="#0F4C81">A</text>
  <path d="M95 50 Q 110 30 125 50" stroke="#2DD4BF" stroke-width="3" fill="none" stroke-linecap="round"/>
  <circle cx="135" cy="60" r="20" fill="#2DD4BF" />
  <text x="126" y="68" font-family="Arial, sans-serif" font-size="20" fill="white">あ</text>

  <text x="170" y="75" font-family="Segoe UI, Roboto, Helvetica, Arial, sans-serif" font-weight="700" font-size="48" fill="#0F4C81">Osmosis</text>
</svg>
